HIERARCHY
ROOT Hips
{
	OFFSET -14.64140 90.27770 -84.91600
	CHANNELS 6 Xposition Yposition Zposition Zrotation Xrotation Yrotation
	JOINT Spine
	{
		OFFSET 0.00000 13.20850 -1.60436
		CHANNELS 3 Zrotation Xrotation Yrotation
		JOINT Spine1
		{
			OFFSET 0.00000 8.61716 0.00000
			CHANNELS 3 Zrotation Xrotation Yrotation
			JOINT Spine2
			{
				OFFSET 0.00000 8.61717 0.00000
				CHANNELS 3 Zrotation Xrotation Yrotation
				JOINT Spine3
				{
					OFFSET 0.00000 8.61717 0.00000
					CHANNELS 3 Zrotation Xrotation Yrotation
					JOINT Neck
					{
						OFFSET 0.00000 11.07920 1.10792
						CHANNELS 3 Zrotation Xrotation Yrotation
						JOINT Neck1
						{
							OFFSET 0.00000 7.08032 0.00000
							CHANNELS 3 Zrotation Xrotation Yrotation
							JOINT Head
							{
								OFFSET 0.00000 7.08031 0.00000
								CHANNELS 3 Zrotation Xrotation Yrotation
								End site
								{
									OFFSET 0.00000 0.00000 0.00000
								}
							}
						}
					}
					JOINT RightShoulder
					{
						OFFSET -0.01000 7.91373 5.19711
						CHANNELS 3 Zrotation Xrotation Yrotation
						JOINT RightArm
						{
							OFFSET -18.41580 0.00000 0.00000
							CHANNELS 3 Zrotation Xrotation Yrotation
							JOINT RightForeArm
							{
								OFFSET -29.11090 0.00000 0.00000
								CHANNELS 3 Zrotation Xrotation Yrotation
								JOINT RightHand
								{
									OFFSET -24.65040 0.00000 0.00000
									CHANNELS 3 Zrotation Xrotation Yrotation
									JOINT RightHandThumb1
									{
										OFFSET -5.35114 -0.85590 3.97906
										CHANNELS 3 Zrotation Xrotation Yrotation
										JOINT RightHandThumb2
										{
											OFFSET -4.52789 0.00000 0.00000
											CHANNELS 3 Zrotation Xrotation Yrotation
											JOINT RightHandThumb3
											{
												OFFSET -2.46976 0.00000 0.00000
												CHANNELS 3 Zrotation Xrotation Yrotation
												End site
												{
													OFFSET 0.00000 0.00000 0.00000
												}
											}
										}
									}
									JOINT RightHandIndex1
									{
										OFFSET -14.26970 0.00000 2.88139
										CHANNELS 3 Zrotation Xrotation Yrotation
										JOINT RightHandIndex2
										{
											OFFSET -5.48836 0.00000 0.00000
											CHANNELS 3 Zrotation Xrotation Yrotation
											JOINT RightHandIndex3
											{
												OFFSET -3.01859 0.00000 0.00000
												CHANNELS 3 Zrotation Xrotation Yrotation
												End site
												{
													OFFSET 0.00000 0.00000 0.00000
												}
											}
										}
									}
									JOINT RightHandMiddle1
									{
										OFFSET -14.26970 0.00000 -0.09147
										CHANNELS 3 Zrotation Xrotation Yrotation
										JOINT RightHandMiddle2
										{
											OFFSET -6.17441 0.00000 0.00000
											CHANNELS 3 Zrotation Xrotation Yrotation
											JOINT RightHandMiddle3
											{
												OFFSET -3.56743 0.00000 0.00000
												CHANNELS 3 Zrotation Xrotation Yrotation
												End site
												{
													OFFSET 0.00000 0.00000 0.00000
												}
											}
										}
									}
									JOINT RightHandRing1
									{
										OFFSET -12.69180 0.00000 -3.06433
										CHANNELS 3 Zrotation Xrotation Yrotation
										JOINT RightHandRing2
										{
											OFFSET -5.62556 0.00000 0.00000
											CHANNELS 3 Zrotation Xrotation Yrotation
											JOINT RightHandRing3
											{
												OFFSET -3.56744 0.00000 0.00000
												CHANNELS 3 Zrotation Xrotation Yrotation
												End site
												{
													OFFSET 0.00000 0.00000 0.00000
												}
											}
										}
									}
									JOINT RightHandPinky1
									{
										OFFSET -11.11390 0.00000 -6.03719
										CHANNELS 3 Zrotation Xrotation Yrotation
										JOINT RightHandPinky2
										{
											OFFSET -4.52789 0.00000 0.00000
											CHANNELS 3 Zrotation Xrotation Yrotation
											JOINT RightHandPinky3
											{
												OFFSET -2.46976 0.00000 0.00000
												CHANNELS 3 Zrotation Xrotation Yrotation
												End site
												{
													OFFSET 0.00000 0.00000 0.00000
												}
											}
										}
									}
								}
							}
						}
					}
					JOINT LeftShoulder
					{
						OFFSET 0.01000 7.91373 5.19711
						CHANNELS 3 Zrotation Xrotation Yrotation
						JOINT LeftArm
						{
							OFFSET 18.41580 0.00000 0.00000
							CHANNELS 3 Zrotation Xrotation Yrotation
							JOINT LeftForeArm
							{
								OFFSET 29.11090 0.00000 0.00000
								CHANNELS 3 Zrotation Xrotation Yrotation
								JOINT LeftHand
								{
									OFFSET 24.65040 0.00000 0.00000
									CHANNELS 3 Zrotation Xrotation Yrotation
									JOINT LeftHandThumb1
									{
										OFFSET 5.35114 -0.85590 3.97906
										CHANNELS 3 Zrotation Xrotation Yrotation
										JOINT LeftHandThumb2
										{
											OFFSET 4.52789 0.00000 0.00000
											CHANNELS 3 Zrotation Xrotation Yrotation
											JOINT LeftHandThumb3
											{
												OFFSET 2.46977 0.00000 0.00000
												CHANNELS 3 Zrotation Xrotation Yrotation
												End site
												{
													OFFSET 0.00000 0.00000 0.00000
												}
											}
										}
									}
									JOINT LeftHandIndex1
									{
										OFFSET 14.26970 0.00000 2.88139
										CHANNELS 3 Zrotation Xrotation Yrotation
										JOINT LeftHandIndex2
										{
											OFFSET 5.48836 0.00000 0.00000
											CHANNELS 3 Zrotation Xrotation Yrotation
											JOINT LeftHandIndex3
											{
												OFFSET 3.01859 0.00000 0.00000
												CHANNELS 3 Zrotation Xrotation Yrotation
												End site
												{
													OFFSET 0.00000 0.00000 0.00000
												}
											}
										}
									}
									JOINT LeftHandMiddle1
									{
										OFFSET 14.26970 0.00000 -0.09147
										CHANNELS 3 Zrotation Xrotation Yrotation
										JOINT LeftHandMiddle2
										{
											OFFSET 6.17440 0.00000 0.00000
											CHANNELS 3 Zrotation Xrotation Yrotation
											JOINT LeftHandMiddle3
											{
												OFFSET 3.56744 0.00000 0.00000
												CHANNELS 3 Zrotation Xrotation Yrotation
												End site
												{
													OFFSET 0.00000 0.00000 0.00000
												}
											}
										}
									}
									JOINT LeftHandRing1
									{
										OFFSET 12.69180 0.00000 -3.06433
										CHANNELS 3 Zrotation Xrotation Yrotation
										JOINT LeftHandRing2
										{
											OFFSET 5.62556 0.00000 0.00000
											CHANNELS 3 Zrotation Xrotation Yrotation
											JOINT LeftHandRing3
											{
												OFFSET 3.56744 0.00000 0.00000
												CHANNELS 3 Zrotation Xrotation Yrotation
												End site
												{
													OFFSET 0.00000 0.00000 0.00000
												}
											}
										}
									}
									JOINT LeftHandPinky1
									{
										OFFSET 11.11390 0.00000 -6.03719
										CHANNELS 3 Zrotation Xrotation Yrotation
										JOINT LeftHandPinky2
										{
											OFFSET 4.52789 0.00000 0.00000
											CHANNELS 3 Zrotation Xrotation Yrotation
											JOINT LeftHandPinky3
											{
												OFFSET 2.46976 0.00000 0.00000
												CHANNELS 3 Zrotation Xrotation Yrotation
												End site
												{
													OFFSET 0.00000 0.00000 0.00000
												}
											}
										}
									}
								}
							}
						}
					}
					JOINT pCube4
					{
						OFFSET 0.00000 10.91090 1.10792
						CHANNELS 3 Zrotation Xrotation Yrotation
						End site
						{
							OFFSET 0.00000 0.00000 0.00000
						}
					}
				}
			}
		}
	}
	JOINT RightUpLeg
	{
		OFFSET -9.98441 0.00000 0.00000
		CHANNELS 3 Zrotation Xrotation Yrotation
		JOINT RightLeg
		{
			OFFSET 0.00000 -42.11790 0.00000
			CHANNELS 3 Zrotation Xrotation Yrotation
			JOINT RightFoot
			{
				OFFSET 0.00000 -45.00020 -0.00001
				CHANNELS 3 Zrotation Xrotation Yrotation
				JOINT RightForeFoot
				{
					OFFSET 0.00000 -3.74820 0.00000
					CHANNELS 3 Zrotation Xrotation Yrotation
					JOINT RightToeBase
					{
						OFFSET 0.00000 0.06325 14.43120
						CHANNELS 3 Zrotation Xrotation Yrotation
						End site
						{
							OFFSET 0.00000 0.00000 0.00000
						}
					}
				}
			}
		}
	}
	JOINT LeftUpLeg
	{
		OFFSET 9.98441 0.00000 0.00000
		CHANNELS 3 Zrotation Xrotation Yrotation
		JOINT LeftLeg
		{
			OFFSET 0.00000 -42.11800 0.00000
			CHANNELS 3 Zrotation Xrotation Yrotation
			JOINT LeftFoot
			{
				OFFSET 0.00000 -45.00070 0.00000
				CHANNELS 3 Zrotation Xrotation Yrotation
				JOINT LeftForeFoot
				{
					OFFSET 0.00000 -3.74824 0.00000
					CHANNELS 3 Zrotation Xrotation Yrotation
					JOINT LeftToeBase
					{
						OFFSET 0.00000 0.06325 14.43110
						CHANNELS 3 Zrotation Xrotation Yrotation
						End site
						{
							OFFSET 0.00000 0.00000 0.00000
						}
					}
				}
			}
		}
	}
}
MOTION
Frames: 4
Frame Time: 0.050000
0.021180564484508495 -0.0459422841536427 0.020901618684696414 0.011420971864500409 -0.03381483692139164 0.04611553394534225 -2.9977395318861815 0.562273291087102 -0.6649810159869164 -0.9726762153716434 3.795618567775204 0.35469430790980766 -1.395995292318003 -2.1329984228295533 0.05890201055760412 0.020622374090329507 0.33812382968529525 -0.7215075172462733 0.7930264440473714 14.128847540338858 -1.6030882603136176 0.21443385779345867 0.3037790876868943 -6.365062723672862 0.8863122006681998 -14.498252503246169 -0.5223189884167685 -7.410599039717284 2.438512020659237 -13.227572890241946 75.06596844707563 10.504090634114158 31.589946987872633 26.803066294818684 5.681807665265404 76.7851873596729 18.08729410889644 -0.2953190177024129 -1.5699730387632993 4.527483232979415 -0.12754414906669814 -1.6157495204871453 -0.0216200115334518 -0.0009126472133212575 -56.271224117657574 0.017358139656706312 0.031930544975394846 -56.25995557989554 -38.77619348531111 -0.029042931604949248 0.0450210334206055 0.02930734194787215 -0.014496988773053374 -0.023647954033511054 -0.013918696406129716 0.032155980994745766 -0.01843085767896578 -36.653397229046696 -0.0034266340174609203 0.047362988254477 0.0043991023653229605 0.03210162501655429 -0.029419878021621774 -0.008360021434985352 0.003135781443510835 0.017807926218579805 -19.75799100987196 0.04536415158623068 0.0062754917857858646 -0.02889473407238922 0.011393083922359075 -0.027753604883136985 -0.007578814473714447 0.003918511726387185 0.016083377515255057 24.089403415638138 0.033444362140064514 0.049847030120846146 28.844876715685164 0.004102643672468194 0.016638784580546975 28.868554727129354 -0.0016489694933037036 0.04302126632196699 5.881671489302062 1.4244202211589103 12.027297867961275 -67.78941547137919 24.803907866505206 -12.65469852383688 -15.136427195799161 -1.1217612023415544 -69.67348841713084 -8.852983913086543 3.8640521089433997 -1.722218996238631 -0.42502758272794083 0.1027081993141195 -8.125597278679912 0.0036106520124463666 -0.0014260660480574794 44.60261911890413 -0.018277533686539792 0.02920507050640477 44.55545900071157 12.50970454985889 0.01912105302018169 -0.03662416601682623 0.007589369865798393 -0.0012344693082433217 -0.010832087952247221 -0.02265340241234117 -0.03367380575130241 0.029762121230176155 11.088447235393504 -0.009496999913096627 -0.025772140915172548 0.048352217264091876 0.04367196718746312 0.04335824045833085 0.028913913954650417 -0.013051739469585882 0.015709772834603147 4.774463213099326 -0.02755371284095025 -0.04278304858262496 0.03576997220070846 -0.019031813400927747 -0.04444957346671543 0.0005767605710138223 -0.007270055662133797 -0.02529767744782536 -5.619757001262817 0.0198120321287077 0.011894478694379592 -6.726493608310562 -0.009941811805993423 0.00894198914335556 -6.713767608395981 0.017442354051998413 -0.04689420736179443 -0.003746817910830822 -0.003895260939051083 0.004341385830292031 8.01358481451029 3.4601033501947516 -19.20882209375483 -0.009518475529040145 10.362730140568493 0.012680231424954024 -5.652984112074516 -15.69811350902375 3.208182792035649 -0.04733125394803391 -0.04924147807534126 0.023357543608176105 0.007187506034563388 4.730901836425992 0.03145987271765765 12.508342505403132 -8.210891801310005 6.898776577176523 -0.01892793375620969 46.375912123957434 0.0003894734952614499 -4.318324224167926 -14.724578086842085 -3.8524208036275067 0.008375957901703352 0.042930211675176966 -0.027490065168839027 -0.03497224484875916 -10.735413612287992 0.03996168227083838 
0.03270714674575178 -0.03456202698579764 -0.048503974156072896 0.039779941454317874 0.004793585816763547 -0.0022622872282930537 -2.9451634258965482 0.4300506080212649 -0.7185635814614646 -0.9581302719860486 3.7237627423978537 0.38630519383926565 -1.3298886824212681 -2.2047584957690116 -0.052672617754943155 0.1255054943272969 0.274683904373676 -0.6958232356141244 0.7670717814021828 14.041460606539296 -1.7994313706612548 0.18723504044228254 0.34707562642100065 -6.877339979226664 0.9791805599561988 -14.528829660731756 -0.5305628438692259 -7.3919613378547036 2.3673443106462977 -13.254978150679758 74.57927251402002 9.257690826037946 31.24364950260948 32.19474963580844 5.812831968573374 78.73009553159552 19.062043088367826 -0.29289321748095737 -1.8159436618583102 4.531758490574896 -0.14671956858754076 -1.6049813028888336 0.04133259007928674 -0.021646025068484134 -56.218350931724025 -0.022749360589047894 0.035736676886717195 -56.19541224383797 -38.7823573827064 -0.008852627094588186 0.03143702386029018 -0.003932723420024044 0.03420182502394299 0.012754366023459503 0.0032772195564504157 -0.01400966637074199 0.0006070470125399198 -36.668193087543386 0.039362813791529755 -0.00821689823596476 -0.010224318165614501 -0.001195371977976053 -0.049867699646202156 0.0026688787032309856 0.0026227769271765216 -0.018854786089919515 -19.75122382645357 0.04634976672942836 -0.04653627693575229 0.03961165789906766 -0.013741785365564519 -0.019666709656659672 0.01538533167384482 -0.038383188220692005 -0.035161183273178465 24.08278596909886 0.01757154655329682 -0.022692980324251027 28.859969942237445 0.027636280609613092 0.03957912529799556 28.913418034229007 -0.018703780129475094 0.011591581711934978 6.088430192784222 1.3977991815951878 12.000039979865049 -67.43803842765307 23.051709534869875 -13.875640772211295 -20.937530817691933 2.4721085900437885 -74.30146026709507 -9.306435472362145 3.8838248385244336 -2.03340758861133 -0.4471428252000146 0.11060793764908351 -8.172463979034985 0.022337578896877704 -0.017059605690008098 44.561705894093706 -0.001966837944509566 -0.03785948834709877 44.592913794699705 12.47464736167034 0.012349084367286992 -0.032711712620882086 0.011956904362808213 -0.002235417097091107 0.031910341331934516 -0.00873847313979304 -0.009852679144924404 0.04994199200821981 11.105269746979188 -0.004582455360924081 -0.004162491721037059 -0.0037067287905721467 -0.030750961727660165 0.043859369278717156 0.03505875748265302 0.016741366307127376 0.01620088897675641 4.772912487171282 -0.01858446421324232 0.026465281336893715 -0.01626915162003632 0.02634300667555874 -0.014133740519383766 -0.018201181135562936 0.034519671888535795 0.00993372013679673 -5.564201094409553 0.02882901012819257 -0.0031291500451980604 -6.7194025750357484 0.003558685674077031 -0.0010630693024454199 -6.70372219653454 -0.04508431618932619 -0.006083752038243493 0.02794504555035708 -0.007887962093500971 -0.01061996689922485 8.08997172289284 3.473358867444749 -19.199480388046947 0.02308518797874603 10.374871114131206 0.03169861886195703 -5.608237874110283 -15.625039332492898 3.2294924778214624 -0.00533310251198695 0.006404138828078534 0.04217811764245863 -0.00879407835569277 4.675747873851421 -0.01040883677705756 12.469054250523534 -8.244592194975064 6.841094858983338 -0.0188914977179985 46.36877367664218 0.0062340743545775314 -4.285777334265049 -14.743827420001669 -3.8671579442680617 0.00879412976800214 0.02170621689665662 -0.041743564623807766 0.010373862216774438 -10.750458507352555 -0.021174116530341208 
-0.01777022520893087 -0.005336814284236737 0.011645237579229783 0.042014075712753646 0.005286262301002755 -0.02014929609293558 -2.75014468203899 0.3140539359882817 -0.7464038394177603 -0.8931583318689541 3.6902978615196806 0.40431218005121844 -1.344067548681143 -2.2243693851724493 -0.15287161233135943 0.1750163735167791 0.12607141862425994 -0.7413085288913588 0.7386591709107471 14.10276117798855 -2.0714529215234356 0.19686177570234234 0.3977838796742826 -7.287551847709333 1.023175843896114 -14.419643868324153 -0.5986998630446235 -7.557443633773023 2.4008547853607594 -13.270118865849168 73.96325371723594 6.762672627942743 31.701069728151865 39.30173221141607 5.499113230876348 82.75873585571323 19.780652406955685 -0.3638089544488886 -1.995016861243671 4.482385151695499 -0.10340607390986899 -1.606242782389395 0.008947587022818997 0.02155946509777717 -56.23380284655283 0.005946335286644728 -0.02835201632523799 -56.208403988295224 -38.78510333236205 0.0003502446924019378 -0.004098470995992114 -0.003695860724584276 0.04050196093352836 0.00938323102373708 -0.010031296432194827 0.01621058732401184 -0.015436491918678494 -36.65708655176451 -0.008176498034394703 0.021519888636161087 -0.026514475398799652 0.04003300866899247 0.04297464324681874 -0.004165196156920254 0.0033807450140279837 0.009352570088545733 -19.79212739052257 -0.003030416980076641 0.0027320790888348255 -0.003985256089811998 -0.0001880090398676592 0.018348300122564484 -0.0493077044631099 0.011281933021080576 0.010074052054813496 24.068225294160104 -0.016267888694600437 0.020147860851812697 28.88204529926766 0.01840020212971734 0.011054308925064395 28.82170377576263 0.029878353728740842 -0.045092027660492695 6.461895562969208 1.5020867884954878 11.991748966772995 -67.22993905578511 21.120535903956785 -15.309310854762606 -29.041665667265775 6.044264170772428 -81.13797028133443 -10.016578529038645 3.908338420531139 -2.3775306124429414 -0.42576194054605554 0.0646066325227231 -8.101418309030342 -0.014741203515972709 0.009067863337660444 44.55417918465387 0.005099428391001352 -0.04425783071727253 44.51888555271355 12.453052301397207 -0.024335076054049498 0.04232485671860623 -0.03332277369299386 -0.01644733334853791 0.013888348830161708 -0.03343622782127499 0.03701339548363339 0.00870845024227529 11.06702463414258 -0.023861401842717136 -0.009780653992751322 0.038523603720164015 -0.026875651428851944 -0.0026349518270969425 0.024136550532638985 -0.03533640229517563 -0.01578828075013503 4.74351399672009 0.00590690921411182 0.004337298322259878 0.03088829878855945 -0.04496559959058359 0.012760467963864838 -0.0376131976892711 -0.01342294352642542 -0.03283691746231886 -5.628095955884553 -0.025665376707962543 0.02603215131431076 -6.7613755190126765 -0.0008692446573898767 0.005147373091882252 -6.725489215791 0.019323820229640177 0.017210885299531287 0.0017671360449495323 -0.0023355377087131528 0.023345275616231214 8.036122153449918 3.527780685942737 -19.179417942148753 0.036133676663237004 10.416775350141432 0.015216067658923959 -5.609967512435522 -15.67214114844334 3.2183664546516795 0.014330084702637485 0.0446593932391058 -0.013864512304716704 0.0157209839298039 4.654203392702664 -0.015389408403363563 12.448085778460973 -8.274464406837172 6.86030412481097 0.012609981689167915 46.42378050048673 -0.004163619533635505 -4.319321784092769 -14.733308124934513 -3.7935445566827144 -0.04742351509647076 -0.026728732823241216 -0.004934553937169707 -0.010234568667778764 -10.716389668159461 -0.015031826934938208 
0.0009290023681746709 0.0277349736702736 0.03561184657856668 0.022783233753227092 0.044360685154772636 0.04442925823452206 -2.7181283810059536 0.04791043199022754 -0.7372357486989032 -0.8848416593847446 3.695432498996827 0.3710880187481992 -1.3607783888612677 -2.305093904710045 -0.2014615880242545 0.11167598293477268 0.035404704201812236 -0.6960706806010155 0.7854642576613964 14.202664758552327 -2.0998681370052714 0.2465081719041372 0.3985038022999316 -7.3476841579644505 0.9439841347825575 -14.384062989355057 -0.5838280935788016 -7.759078245003752 2.4936378584674714 -13.347724032855925 73.10779666196797 3.3173604913403403 32.42981428898483 46.510707821934155 4.332599788448161 87.31814668501809 20.28735062423211 -0.3906352321868132 -2.1102545012189178 4.484006442791211 -0.17558421201827096 -1.5616785920618204 0.0353654227092073 -0.013132435117226898 -56.24279716830906 -0.01727663351779215 -0.015603985404481924 -56.212279878218915 -38.7594176327819 0.022640476007259654 0.007816354227364144 -0.026666580966014458 0.017547333053011843 -0.007216310401605276 0.04510012682578399 0.019573777059867355 -0.004427817866561458 -36.723679517827804 -0.03843025418088885 0.026155739116729578 0.037016958936825405 0.021112532651890073 -0.015725594174948378 -0.01890288083502175 -0.003084610135246276 -0.03835209756513143 -19.766824436434252 0.035312666589417056 -0.027092821495364065 0.017445938013115222 0.009589388805243444 -0.01507311266955716 0.024606447826827384 -0.0009284014356777481 -0.007574117737506884 24.070854538684173 0.016443511115311067 0.047297393754522445 28.907464416870994 0.020972070341816373 0.03045628037478015 28.85795111545789 0.011532910307257714 -0.008872271111775734 6.814521727601398 1.6109182018943649 11.962604918610545 -67.0273874168873 19.69753958412364 -16.423674287026724 -37.77801499879091 8.473328365934373 -88.5183669961987 -10.54822003183593 3.914877056157342 -2.634402445159903 -0.46405022588485273 0.10428811635230348 -8.095819756853006 0.04237175045241417 0.01695385197100466 44.577786619238495 0.01614816931619774 0.004056025628723719 44.524700062667705 12.502255327731739 -0.0005542927537030924 -0.021130967849693944 -0.03832728140780852 0.0350269621483601 -0.036236440336235104 -0.005555236292018814 0.04723369092628643 -0.003465499440068746 11.083999962926509 0.025084056037384797 -0.015146614263191442 -0.027196562985370005 -0.015191533688045652 0.011382762480622637 -0.02086114801319699 0.04565244365558062 -0.004621768006324727 4.789214897920364 -0.01707158731312933 -0.018483718119286972 -0.0012105590228893123 -0.022967639769236596 0.034309271309160234 -0.0273640613754015 0.02240706768013527 -0.0136315504205602 -5.612589786248022 0.03666595930894812 -0.01982721663388787 -6.710821429388684 -0.018610188422800097 -0.0468490150716967 -6.680731282340266 -0.004982304658251476 0.02531876796363759 -0.01933083742446169 -0.008770929122591618 0.02575755926684268 7.997479729705402 3.5386730801818755 -19.201329060700342 0.04064707903194952 10.355393286823624 -0.016791227225941226 -5.632122060394416 -15.64760882814488 3.1939792235414455 0.03631432591324886 -0.018804537140328502 0.03917404126874029 0.012655833064487976 4.734252207943702 0.046564300794711244 12.486943304338292 -8.247164568444342 6.8472617547455155 -0.022533267768474998 46.39353518937262 0.03793153285277003 -4.341602141935265 -14.756219344067098 -3.843257100106556 -0.0035202631018347304 0.04645545401242797 -0.04214553289356514 0.02285617338744532 -10.763190751772129 -0.00833252973717635 
